<?xml version="1.0" standalone="no"?>
<!DOCTYPE svg PUBLIC "-//W3C//DTD SVG 20010904//EN"
 "http://www.w3.org/TR/2001/REC-SVG-20010904/DTD/svg10.dtd">
<svg version="1.0" xmlns="http://www.w3.org/2000/svg"
 width="240.000000pt" height="240.000000pt" viewBox="0 0 240.000000 240.000000"
 preserveAspectRatio="xMidYMid meet">
<metadata>
Created by potrace 1.11, written by Peter Selinger 2001-2013
</metadata>
<g transform="translate(0.000000,240.000000) scale(0.100000,-0.100000)"
fill="#000000" stroke="none">
<path d="M0 1200 l0 -1200 1200 0 1200 0 0 1200 0 1200 -1200 0 -1200 0 0
-1200z m1090 1050 c-23 -7 -23 -8 -3 -9 12 -1 25 4 28 9 3 6 39 9 78 8 66 -1
68 -2 27 -8 -25 -4 -37 -8 -26 -8 12 -1 16 -7 12 -17 -3 -8 0 -15 6 -15 7 0 6
-5 -2 -15 -19 -23 -6 -29 61 -31 33 0 55 2 49 6 -7 4 1 9 18 12 30 4 31 3 28
-31 -2 -20 -1 -28 1 -18 6 23 28 16 28 -9 0 -15 8 -19 35 -21 l35 -1 -30 8
c-28 7 -28 8 -5 9 14 1 32 6 40 11 11 8 5 9 -22 7 -21 -3 -38 0 -38 4 0 14 72
10 105 -6 l30 -13 -44 -1 c-24 -1 -42 -4 -38 -7 8 -9 71 -11 82 -3 6 4 26 -8
45 -28 l35 -36 -35 22 c-38 22 -60 27 -60 11 0 -5 7 -15 16 -22 57 -45 94 -87
88 -102 -3 -9 -11 -16 -16 -16 -6 0 -4 7 3 17 12 14 12 16 -1 11 -8 -2 -15
-11 -15 -20 0 -20 -32 -51 -40 -38 -15 25 -22 7 -8 -21 13 -26 13 -37 3 -68
-7 -21 -10 -62 -7 -92 5 -52 26 -139 37 -149 3 -3 6 -11 7 -17 3 -15 -9 -16
-62 -3 -73 19 -219 21 -241 5 -17 -13 -17 -14 -1 -15 9 0 17 4 17 8 0 4 9 8
21 9 15 1 7 -7 -25 -28 -66 -41 -141 -41 -221 1 -42 22 -50 29 -31 28 14 -1
26 -6 26 -10 0 -4 7 -8 16 -8 13 0 14 3 5 14 -14 17 -167 15 -245 -3 -60 -14
-67 -7 -54 57 6 26 10 53 11 60 0 6 4 12 9 12 4 0 8 26 8 58 0 72 24 120 73
148 l37 21 -29 0 c-17 0 -29 -3 -28 -6 1 -3 -11 -19 -26 -35 -15 -16 -27 -37
-27 -47 0 -11 -7 -19 -15 -19 -12 0 -13 -4 -5 -19 5 -11 10 -29 10 -41 0 -23
-27 -81 -42 -91 -5 -3 -5 -17 1 -32 14 -35 1 -35 -22 1 -18 27 -18 27 -12 2 3
-14 7 -31 9 -37 1 -7 10 -19 20 -26 18 -13 18 -14 1 -21 -10 -4 -23 -2 -29 4
-8 8 -5 9 9 5 16 -6 16 -3 -5 13 -14 12 -21 24 -17 28 4 4 1 14 -5 22 -7 8
-13 41 -13 73 0 33 -3 51 -7 42 -11 -29 -9 131 3 164 9 27 14 31 44 28 42 -4
49 5 31 39 -10 21 -15 23 -19 11 -4 -8 -1 -15 5 -15 8 0 5 -7 -5 -17 -11 -11
-20 -14 -27 -7 -16 16 36 74 62 69 16 -3 19 -2 10 7 -8 8 -8 14 3 22 8 6 17
27 20 46 3 19 14 46 24 60 15 21 26 25 64 24 36 -1 43 1 34 11 -8 9 -18 10
-30 3 -21 -11 -32 -5 -23 11 4 6 14 7 23 4 12 -5 14 -3 8 7 -6 9 -4 11 5 5 8
-5 23 -9 34 -10 12 -1 32 -5 46 -9 24 -8 24 -8 5 8 -11 8 -33 16 -50 16 l-30
0 30 16 c33 17 89 32 120 32 16 0 15 -2 -5 -8z m181 -21 c-24 -11 -46 -17 -49
-14 -3 3 1 5 9 5 12 0 11 2 -1 11 -12 8 -11 9 5 5 11 -3 27 -1 35 4 8 5 22 9
30 9 8 0 -5 -9 -29 -20z m89 -32 c0 -6 -16 -7 -40 -3 -31 5 -42 3 -46 -9 -4
-8 -10 -15 -16 -15 -5 0 -6 5 -3 10 3 6 -1 10 -9 10 -9 0 -16 -5 -16 -11 0 -5
-5 -7 -11 -3 -13 8 -1 20 26 27 36 8 115 5 115 -6z m66 3 c42 -16 23 -21 -21
-5 -22 8 -32 14 -23 15 9 0 29 -5 44 -10z m-12 -19 c3 -5 -5 -11 -19 -13 -20
-4 -23 -3 -14 8 13 16 25 18 33 5z m76 -7 c0 -2 -7 -4 -15 -4 -8 0 -15 4 -15
10 0 5 7 7 15 4 8 -4 15 -8 15 -10z m164 -241 c4 -10 4 -14 -1 -10 -4 4 -15
-7 -25 -25 l-18 -33 6 30 c4 24 3 27 -6 15 -10 -13 -11 -13 -7 0 2 8 10 14 16
12 6 -1 14 5 17 13 8 19 10 19 18 -2z m5 -75 c1 -5 -3 -8 -9 -8 -5 0 -10 12
-9 28 0 24 1 25 9 7 5 -11 9 -23 9 -27z m26 -42 c8 -52 -12 -206 -27 -206 -5
0 -6 9 -3 20 3 11 2 20 -4 20 -5 0 -11 6 -14 13 -2 6 -3 4 -2 -5 4 -25 -12
-22 -20 3 -6 17 -9 19 -16 8 -12 -20 -11 -31 3 -23 8 5 9 -1 5 -22 -4 -21 0
-36 15 -54 11 -14 17 -19 13 -12 -3 6 -1 12 5 12 7 0 10 7 6 15 -3 8 -1 15 5
15 10 0 4 -48 -7 -60 -7 -6 -36 13 -36 25 0 6 -4 15 -9 21 -14 17 -14 75 1
131 12 46 12 53 -3 68 -10 9 -17 24 -17 33 0 15 2 15 10 2 8 -12 10 -10 10 8
0 13 4 21 9 18 5 -4 12 0 14 6 4 8 6 7 6 -4 1 -11 7 -15 22 -11 16 5 19 11 14
37 -4 25 -3 27 4 10 5 -12 13 -42 16 -68z m-89 47 c-10 -10 -19 5 -10 18 6 11
8 11 12 0 2 -7 1 -15 -2 -18z m-9 -90 c13 -30 7 -73 -9 -73 -6 0 -7 -7 -4 -16
3 -8 2 -12 -4 -9 -11 7 -12 125 -1 125 3 0 12 -12 18 -27z m-787 -123 c0 -5
-5 -10 -11 -10 -5 0 -7 5 -4 10 3 6 8 10 11 10 2 0 4 -4 4 -10z m827 -42 c-3
-8 -6 -5 -6 6 -1 11 2 17 5 13 3 -3 4 -12 1 -19z m-608 -69 c31 -6 63 -22 82
-40 28 -26 31 -34 26 -71 -14 -107 -141 -173 -237 -123 -37 19 -70 82 -70 134
0 86 80 126 199 100z m501 -9 c37 -20 55 -52 53 -95 -3 -89 -55 -145 -135
-145 -89 0 -146 40 -168 118 -23 85 68 149 190 135 25 -3 52 -9 60 -13z m-730
-103 c0 -28 34 -137 43 -137 5 0 5 5 1 11 -3 6 5 3 20 -6 14 -10 54 -20 90
-22 81 -7 143 20 188 81 25 35 29 47 24 83 -5 39 -3 43 18 49 45 11 61 1 62
-36 1 -64 4 -70 45 -115 50 -54 92 -69 175 -62 l62 5 -29 -48 c-32 -53 -80
-79 -147 -81 l-37 -2 45 -8 c83 -17 90 -17 84 -8 -3 5 -15 9 -27 9 -15 1 -11
5 16 14 20 8 44 19 52 26 9 7 19 10 23 6 8 -9 -26 -36 -45 -36 -10 0 -10 -5
-1 -25 11 -24 32 -26 22 -1 -3 7 6 18 20 24 26 11 27 29 3 60 -8 10 -5 11 16
3 30 -12 44 1 22 19 -11 9 -15 9 -15 1 0 -7 -4 -10 -10 -6 -5 3 -7 12 -4 20 4
8 10 12 15 9 5 -3 9 5 9 18 0 18 2 20 10 8 5 -9 5 -19 -1 -26 -7 -8 -7 -14 0
-18 15 -9 22 10 16 41 -3 15 -2 22 1 14 7 -14 53 114 57 157 1 12 9 30 19 39
17 15 18 14 18 -10 0 -36 -45 -175 -70 -215 -11 -19 -27 -66 -34 -105 -25
-128 -72 -228 -92 -196 -5 8 -3 9 6 4 9 -5 11 -4 6 4 -4 6 0 14 8 17 21 8 20
22 0 20 -9 0 -19 6 -21 14 -4 13 -3 13 6 0 10 -14 16 -7 12 14 -1 5 5 4 13 -4
17 -13 19 -10 10 13 -9 23 -54 -2 -54 -31 0 -13 4 -20 10 -17 14 9 13 -8 -2
-23 -6 -6 -13 -21 -15 -33 -3 -18 -1 -20 12 -9 13 11 15 6 15 -42 0 -49 16
-126 34 -170 10 -23 -66 -98 -131 -131 -139 -71 -284 -53 -411 50 -61 49 -66
63 -42 115 14 30 20 65 20 116 0 39 3 72 8 72 4 0 25 -16 47 -35 22 -19 50
-38 62 -41 13 -3 21 -9 18 -14 -2 -4 7 -12 20 -18 19 -9 24 -9 22 1 -1 7 8 11
23 10 l25 -3 -25 11 c-19 8 -22 12 -10 19 9 6 0 8 -25 6 -54 -5 -62 0 -60 34
1 16 -2 27 -7 24 -5 -3 -18 2 -28 11 -10 9 -24 14 -29 10 -7 -4 -11 5 -12 22
0 16 -3 22 -6 13 -13 -32 -27 -38 -43 -16 -19 24 -60 148 -59 174 1 9 7 -3 14
-28 l13 -45 -5 56 c-4 45 -2 57 10 62 16 6 40 -15 43 -40 1 -8 -3 -12 -9 -10
-7 2 -11 12 -9 22 2 10 -2 15 -10 13 -7 -3 -12 -15 -12 -28 0 -22 4 -24 53
-26 47 -1 52 1 36 13 -11 7 -16 13 -13 13 4 0 -8 15 -25 33 -31 31 -57 43 -57
25 0 -5 -5 -6 -11 -2 -8 5 -6 10 5 16 23 13 20 33 -9 52 -23 15 -26 15 -32 1
-3 -9 0 -22 6 -28 9 -9 11 -7 6 8 -5 14 -4 16 3 7 5 -8 13 -13 18 -12 5 1 10
-4 12 -12 3 -10 1 -10 -6 1 -8 11 -11 9 -17 -8 -3 -11 -4 -24 -1 -29 2 -4 1
-14 -5 -22 -6 -11 -9 -8 -9 13 0 16 -9 42 -21 58 -25 35 -79 193 -79 228 l1
26 24 -30 c14 -16 25 -38 25 -48z m160 -276 c0 -6 -4 -12 -8 -15 -5 -3 -9 1
-9 9 0 8 4 15 9 15 4 0 8 -4 8 -9z m24 -220 c-2 -3 -12 3 -22 13 -16 17 -16
18 5 5 12 -7 20 -15 17 -18z m56 -33 c0 -12 -10 -9 -26 6 -20 21 -17 28 6 14
11 -7 20 -16 20 -20z m68 -37 c11 -7 10 -9 -3 -14 -9 -4 -14 -3 -10 2 3 5 -1
12 -7 14 -7 3 -8 6 -3 6 6 0 16 -3 23 -8z"/>
<path d="M1010 2220 c8 -5 20 -10 25 -10 6 0 3 5 -5 10 -8 5 -19 10 -25 10 -5
0 -3 -5 5 -10z"/>
<path d="M970 2181 c8 -5 26 -12 40 -15 l25 -7 -25 15 c-14 9 -32 15 -40 15
-13 0 -13 -1 0 -8z"/>
<path d="M866 2135 c-3 -8 -2 -22 1 -32 4 -10 2 -14 -5 -9 -6 3 -14 1 -18 -5
-4 -7 -3 -9 3 -6 6 4 13 0 16 -8 4 -9 1 -12 -9 -8 -18 7 -18 -4 1 -23 12 -12
15 -12 16 -2 4 63 6 108 4 108 -2 0 -5 -7 -9 -15z"/>
<path d="M1368 2093 c7 -3 16 -2 19 1 4 3 -2 6 -13 5 -11 0 -14 -3 -6 -6z"/>
<path d="M1451 2090 c-7 -4 5 -7 28 -7 23 0 43 3 46 6 5 10 -59 11 -74 1z"/>
<path d="M1408 2083 c7 -3 16 -2 19 1 4 3 -2 6 -13 5 -11 0 -14 -3 -6 -6z"/>
<path d="M1523 2032 c2 -31 4 -33 35 -30 21 2 36 -3 42 -12 5 -8 11 -12 14 -9
8 8 -39 50 -59 53 -9 1 -21 9 -26 17 -6 10 -8 4 -6 -19z m37 -12 c0 -5 -5 -10
-11 -10 -5 0 -7 5 -4 10 3 6 8 10 11 10 2 0 4 -4 4 -10z"/>
<path d="M830 2030 c-11 -7 -11 -10 -2 -10 7 0 11 -4 8 -8 -2 -4 4 -8 14 -9
11 -1 22 2 25 7 2 4 -3 7 -13 6 -9 0 -16 5 -14 12 2 14 1 15 -18 2z"/>
<path d="M786 1987 c3 -10 9 -15 12 -12 3 3 0 11 -7 18 -10 9 -11 8 -5 -6z"/>
<path d="M1018 1973 c7 -3 16 -2 19 1 4 3 -2 6 -13 5 -11 0 -14 -3 -6 -6z"/>
<path d="M968 1963 c7 -3 16 -2 19 1 4 3 -2 6 -13 5 -11 0 -14 -3 -6 -6z"/>
<path d="M745 1950 c-3 -5 -1 -10 4 -10 6 0 11 5 11 10 0 6 -2 10 -4 10 -3 0
-8 -4 -11 -10z"/>
<path d="M1360 1949 c0 -5 5 -7 10 -4 6 3 10 8 10 11 0 2 -4 4 -10 4 -5 0 -10
-5 -10 -11z"/>
<path d="M960 1929 c0 -5 9 -9 20 -9 11 0 20 2 20 4 0 2 -9 6 -20 9 -11 3 -20
1 -20 -4z"/>
<path d="M1405 1931 c-3 -6 -27 -13 -53 -17 -26 -4 -41 -9 -35 -11 19 -7 123
17 123 28 0 12 -27 12 -35 0z"/>
<path d="M837 1891 c-13 -16 -28 -27 -31 -24 -10 10 -7 -10 4 -27 8 -13 10
-13 10 -1 0 8 12 27 27 43 14 15 24 30 21 33 -3 3 -17 -8 -31 -24z"/>
<path d="M1065 1905 c72 -16 137 -19 115 -5 -8 5 -26 6 -39 3 -13 -3 -21 -2
-18 3 3 5 -23 10 -56 11 l-62 2 60 -14z"/>
<path d="M1202 1908 c3 -8 24 -13 54 -14 46 -1 46 -1 6 3 -23 2 -40 8 -37 14
4 5 -1 9 -10 9 -9 0 -15 -6 -13 -12z"/>
<path d="M1253 1913 c9 -2 23 -2 30 0 6 3 -1 5 -18 5 -16 0 -22 -2 -12 -5z"/>
<path d="M1490 1909 c0 -6 5 -7 10 -4 6 3 10 0 10 -8 0 -8 7 -17 15 -21 8 -3
15 -12 15 -21 0 -8 5 -15 10 -15 16 0 11 19 -10 40 -12 12 -19 24 -16 28 3 4
-4 9 -15 9 -10 1 -19 -3 -19 -8z"/>
<path d="M713 1845 c0 -22 2 -30 4 -17 2 12 2 30 0 40 -3 9 -5 -1 -4 -23z"/>
<path d="M711 1774 c0 -11 3 -14 6 -6 3 7 2 16 -1 19 -3 4 -6 -2 -5 -13z"/>
<path d="M802 1750 c0 -14 2 -19 5 -12 2 6 2 18 0 25 -3 6 -5 1 -5 -13z"/>
<path d="M748 1673 c7 -3 16 -2 19 1 4 3 -2 6 -13 5 -11 0 -14 -3 -6 -6z"/>
<path d="M1660 1778 c0 -7 5 -20 10 -28 8 -12 10 -9 10 13 0 15 -4 27 -10 27
-5 0 -10 -6 -10 -12z"/>
<path d="M1650 1704 c0 -10 5 -26 10 -34 8 -11 9 -7 4 15 -8 37 -14 45 -14 19z"/>
<path d="M1570 1739 c0 -11 5 -17 10 -14 6 3 10 13 10 21 0 8 -4 14 -10 14 -5
0 -10 -9 -10 -21z"/>
<path d="M998 1482 c-10 -2 -18 -12 -18 -23 0 -14 7 -19 30 -19 23 0 30 5 30
19 0 21 -16 29 -42 23z"/>
<path d="M1363 1483 c-7 -2 -13 -13 -13 -24 0 -14 7 -19 30 -19 23 0 30 5 30
19 0 15 -23 35 -33 30 -1 0 -8 -3 -14 -6z"/>
<path d="M1520 1185 c4 -36 0 -56 -9 -50 -5 3 -12 1 -16 -5 -3 -5 1 -10 10
-10 13 0 14 -4 5 -20 -6 -11 -7 -20 -1 -20 5 0 14 23 21 51 10 39 10 53 0 62
-9 9 -11 7 -10 -8z"/>
<path d="M1040 1160 c-30 -10 -47 -18 -37 -19 10 -1 16 -5 12 -10 -3 -6 69
-10 177 -11 100 0 180 2 176 5 -3 3 -77 6 -164 7 -87 1 -165 4 -172 8 -8 4 1
7 18 7 18 0 35 5 39 12 8 12 61 12 71 0 8 -10 81 -19 75 -9 -3 5 0 12 6 16 8
4 9 3 5 -4 -4 -7 -3 -12 3 -12 5 0 12 4 15 9 3 4 29 7 58 5 47 -2 49 -2 18 6
-19 5 -53 6 -75 4 -51 -6 -80 -6 -130 0 -24 3 -61 -2 -95 -14z"/>
<path d="M1104 1153 c4 -4 19 -8 34 -10 23 -2 24 -1 7 7 -24 11 -51 13 -41 3z"/>
<path d="M1350 1098 c0 -6 -10 -22 -22 -35 -26 -28 -13 -49 16 -27 11 8 14 14
8 14 -7 0 -12 5 -12 11 0 5 4 8 8 5 4 -2 9 6 10 20 1 13 0 24 -3 24 -3 0 -5
-5 -5 -12z"/>
<path d="M1044 1044 c-2 -39 14 -47 66 -35 19 5 28 9 20 10 -9 1 -31 14 -50
30 l-35 28 -1 -33z m36 -9 c7 -8 10 -15 6 -15 -3 0 -8 0 -11 0 -3 0 -5 3 -4 6
0 4 -5 11 -13 15 -8 5 -9 9 -2 9 6 0 17 -7 24 -15z"/>
<path d="M897 1027 c3 -4 11 -6 19 -3 8 3 14 1 14 -4 0 -6 -7 -10 -15 -10 -12
0 -13 -3 -3 -19 12 -20 30 -19 27 2 -3 25 1 38 11 32 6 -3 10 -2 10 3 0 5 -15
9 -34 9 -19 -1 -32 -5 -29 -10z"/>
<path d="M1245 1013 c-11 -2 -35 -11 -53 -19 -26 -12 -36 -13 -47 -4 -11 9
-23 9 -51 0 -30 -10 -38 -10 -45 1 -5 8 -9 10 -9 4 0 -20 16 -30 50 -32 27 -2
31 0 20 8 -11 8 -7 9 15 4 17 -3 49 1 73 9 24 9 41 12 38 8 -2 -4 7 -12 20
-19 13 -6 24 -8 24 -3 0 4 -8 11 -17 15 -17 6 -17 7 1 21 20 14 17 15 -19 7z"/>
<path d="M1158 1003 c7 -3 16 -2 19 1 4 3 -2 6 -13 5 -11 0 -14 -3 -6 -6z"/>
<path d="M1192 971 c-8 -5 1 -8 25 -9 28 -1 34 1 23 8 -18 12 -31 12 -48 1z"/>
<path d="M1018 953 c7 -3 16 -2 19 1 4 3 -2 6 -13 5 -11 0 -14 -3 -6 -6z"/>
<path d="M1370 951 c8 -6 18 -7 24 -4 5 3 6 1 2 -5 -4 -7 -13 -12 -20 -12 -8
0 -13 -11 -12 -27 l1 -28 -85 1 c-63 1 -78 -1 -60 -8 14 -5 45 -10 69 -10 l44
-1 -54 -24 c-53 -24 -100 -27 -141 -9 -11 5 -18 4 -18 -2 0 -12 35 -22 80 -22
45 0 144 45 134 62 -5 7 -2 9 8 5 9 -3 29 6 49 23 19 16 29 29 23 30 -6 0 -17
-7 -24 -15 -7 -9 -15 -13 -18 -10 -3 2 7 14 22 26 30 23 22 39 -19 39 -16 0
-17 -2 -5 -9z"/>
<path d="M1153 872 c-7 -5 5 -14 32 -26 36 -14 50 -16 72 -7 l28 11 -33 -3
c-18 -2 -35 0 -38 5 -3 4 -15 8 -27 8 -18 0 -19 2 -7 10 13 9 13 10 0 10 -8 0
-20 -4 -27 -8z"/>
<path d="M1165 830 c3 -5 13 -10 21 -10 8 0 12 5 9 10 -3 6 -13 10 -21 10 -8
0 -12 -4 -9 -10z"/>
</g>
</svg>
